<svg xmlns='http://www.w3.org/2000/svg' width='180' height='180' viewBox='0 0 18 18'>
    <path
       transform="translate(0,-1034.3622)"
       d="m 8.785065,1035.7271 c -2.9353745,0 -5.3250005,0.9634 -5.3250005,2.1375 0,0.012 -5.1e-4,0.025 0,0.037 l 1.44375,11.7 0.01872,0.1875 0.15,0.094 c 0,0 0.328368,0.2538 0.9375,0.4687 0.609132,0.215 1.53189,0.4125 2.7750005,0.4125 1.243109,0 2.147123,-0.1975 2.756249,-0.4125 0.609126,-0.2149 0.95625,-0.4687 0.95625,-0.4687 l 0.13125,-0.094 0.01872,-0.1875 1.44375,-11.7 c 5.04e-4,-0.012 0,-0.025 0,-0.037 0,-1.1741 -2.370882,-2.1375 -5.306249,-2.1375 z m 0,1.0688 c 2.495063,0 4.518749,0.4817 4.518749,1.0687 0,0.5871 -2.023686,1.05 -4.518749,1.05 -2.3391305,0 -4.2685325,-0.4029 -4.5000005,-0.9375 -0.01542,-0.036 -0.01872,-0.076 -0.01872,-0.1125 0,-0.01 -4.14e-4,-0.013 0,-0.019 l 0,-0.038 c 0.11793,-0.5626 2.099544,-1.0125 4.5187505,-1.0125 z m -4.3687505,2.2687 c 0.962172,0.5523 2.555724,0.9188 4.3687505,0.9188 1.792433,0 3.371075,-0.3584 4.331249,-0.9 l -1.29375,10.2 c -0.07035,0.047 -0.15285,0.1179 -0.5625,0.2625 -0.520302,0.1836 -1.326377,0.375 -2.474999,0.375 -1.1486225,0 -1.9734485,-0.1914 -2.4937505,-0.375 -0.40965,-0.1446 -0.492144,-0.2153 -0.5625,-0.2625 l -1.3125,-10.2188 z"
       style="fill:#000000;fill-opacity:1;stroke:none" />
</svg>
