<svg xmlns='http://www.w3.org/2000/svg' width='180' height='180' viewBox='0 0 18 18'>
    <path
       transform="translate(0,-1034.3622)"
       d="m 8.775659,1035.3254 c -0.8806085,0 -1.5937505,0.7132 -1.5937505,1.5938 0,0.729 0.494436,1.3474 1.1625005,1.5375 l 0,0.8062 -3.5812505,3.1875 a 0.43135189,0.43135189 0 1 0 0.58125,0.6375 l 3.0000005,-2.6812 0,4.6312 -3.1312505,5.4938 a 0.42797671,0.42797671 0 1 0 0.75,0.4125 l 2.8125005,-4.9125 2.812499,4.9125 a 0.42797671,0.42797671 0 1 0 0.75,-0.4125 l -3.131249,-5.4938 0,-4.6312 2.999999,2.6812 a 0.43135189,0.43135189 0 1 0 0.58125,-0.6375 l -3.581249,-3.1875 0,-0.8062 c 0.668064,-0.1901 1.162499,-0.8085 1.162499,-1.5375 0,-0.8806 -0.713135,-1.5938 -1.593749,-1.5938 z"
       style="fill:#000000;fill-opacity:1;stroke:none" />
</svg>
