<svg xmlns="http://www.w3.org/2000/svg" width="661.55804" height="661.55804" version="1.0">
  <g transform="translate(30,-68)">
     
    <path style="fill:#000000" d="M 151.60139,722.17916 C 171.19094,718.08 189.50594,714.67558 192.30139,714.61376 C 195.09683,714.55194 199.85782,713.46774 202.88136,712.20443 C 209.22074,709.55566 213.75149,711.11325 220.39605,718.22568 C 225.16881,723.33448 231.06435,723.43079 249.37795,718.69909 C 259.40501,716.10839 264.8656,715.46029 269.65992,716.2919 C 280.56587,718.18364 292.56056,718.71346 295.96561,717.45384 C 297.82372,716.76647 299.98967,713.76944 301.0994,710.3502 C 302.15519,707.09716 306.12616,698.21611 309.92379,690.61452 C 321.71283,667.01681 328.80553,657.63495 323.51045,672.64281 C 322.22377,676.28962 321.17364,683.54116 321.17683,688.75732 C 321.18515,702.37424 324.18442,706.42803 338.40186,712.0384 C 344.68173,714.51652 353.89108,719.28999 358.86709,722.64611 C 369.45144,729.78483 370.39069,729.75137 389.30862,721.56173 C 413.10144,711.26173 420.87567,708.64927 435.76605,705.95017 C 443.85739,704.48351 451.69708,702.64713 453.1876,701.86933 C 457.10466,699.82528 456.58323,694.67614 450.47909,675.12236 C 446.49634,662.36421 443.63127,656.09506 439.6665,651.46311 C 434.50178,645.42931 430.32465,637.35177 431.67223,636.00419 C 432.02345,635.65298 433.01219,637.31756 433.86948,639.70326 C 434.72674,642.08897 439.70139,648.91894 444.92422,654.88098 C 453.9803,665.21874 460.18561,676.09436 466.93018,693.44927 C 474.1038,711.90815 476.39979,715.23976 482.28946,715.73648 C 487.58685,716.18324 513.32834,708.22078 517.45372,704.85933 C 520.2604,702.57239 519.86518,696.89352 515.57747,677.89922 C 510.1394,653.80886 505.85588,640.79028 501.91244,636.36806 C 497.14697,631.02401 460.30008,604.55209 457.62702,604.55209 C 455.30777,604.55209 444.88946,612.415 435.55705,621.20877 C 428.83592,627.54194 426.68341,625.82562 431.8365,618.24217 C 436.11782,611.94164 451.25187,578.92223 451.25187,575.8818 C 451.25187,573.6589 432.55082,557.31683 426.95972,554.65391 C 424.30548,553.38975 421.44007,553.89513 413.70514,556.99163 C 404.03058,560.86463 403.66386,560.89402 395.02415,558.48928 C 390.17717,557.1402 386.21146,555.20788 386.21146,554.19523 C 386.21146,553.1826 388.25237,544.06385 390.74681,533.93138 C 393.24127,523.79889 398.51752,500.87457 402.47182,482.98846 C 406.42613,465.10235 412.1042,441.06062 415.08978,429.56241 C 418.07537,418.06419 423.61835,396.54021 427.40754,381.73137 C 431.19672,366.9225 434.62777,354.27088 435.03211,353.61666 C 435.80489,352.36625 448.17874,311.16594 451.17566,299.86459 C 452.21606,295.94125 454.4309,292.29034 456.65447,290.8334 C 462.08723,287.27373 464.21583,279.20621 463.04531,266.6118 C 462.1656,257.14664 462.65501,253.98883 467.26788,239.36631 C 476.53749,209.9822 477.04196,207.15542 473.6794,203.43983 C 471.68454,201.23555 469.27925,200.36769 466.04252,200.68439 C 460.83544,201.19385 459.63682,203.8573 450.50247,235.21546 C 444.79518,248.83108 445.15451,253.2359 433.05978,253.30843 C 429.89091,253.67337 427.9897,255.37943 425.61086,259.99276 C 421.36693,268.22308 416.36958,268.94981 410.36433,262.20996 C 406.32869,257.68063 405.40739,257.36437 398.04274,257.98032 C 384.69871,260.38567 378.3314,266.93107 365.0008,254.04887 C 362.41417,252.13649 356.8598,248.45644 355.02363,244.85702 C 353.18748,241.25761 347.35072,233.78302 342.05308,228.24685 C 325.66287,211.1187 328.34077,208.89745 342.16057,208.89745 C 359.44945,207.14335 355.45894,200.11917 357.95025,191.94005 C 358.91534,188.77159 366.35731,188.9535 365.95361,186.94327 C 365.15885,176.13382 367.36106,169.46381 372.44415,165.92458 C 375.3437,157.41266 372.68345,155.40425 379.76855,153.0678 C 386.20668,149.38248 372.13487,134.89699 361.12856,131.59781 C 350.30154,128.35239 348.70847,123.00503 348.70847,122.1782 C 348.70847,121.35136 346.9512,118.29301 344.80345,115.38187 C 342.65567,112.47074 345.85989,102.56702 344.99319,99.348376 C 344.1265,96.129712 341.87682,92.5086 339.99389,91.301449 C 335.71082,88.555567 324.15692,83.443716 294.24905,74.865629 L 271.1985,68.254348 L 260.18026,70.90445 C 235.49908,76.840735 238.13113,75.018117 233.59964,89.31081 C 229.10787,103.47825 226.78497,128.14087 229.46983,133.15759 C 230.94765,135.91891 230.60549,136.11679 225.2378,135.60489 C 221.46548,135.24514 217.18257,136.17819 213.14042,138.24033 C 207.51898,141.10818 206.38288,142.73614 201.96408,154.25529 C 191.37397,181.86216 154.68349,291.25501 153.25503,299.48158 C 152.48741,303.90234 153.4089,306.90019 158.25306,315.74169 C 163.79448,325.85578 164.78965,326.82092 173.1128,330.15292 C 178.01912,332.11706 185.42952,334.1263 189.58035,334.61791 L 197.12731,335.51174 L 193.53033,340.33824 C 191.55199,342.99281 188.27726,350.04276 186.25318,356.0048 C 183.11904,365.23658 182.54787,370.06146 182.40349,388.52501 C 190.80709,410.23698 188.80866,431.2688 187.94993,455.42059 L 186.62237,475.4067 C 184.95722,491.07054 181.24144,502.56654 172.17439,527.89731 C 167.92515,537.64938 166.38685,543.91128 164.94626,557.32036 C 163.93975,566.68928 161.93217,580.19114 160.48498,587.32451 C 158.89233,597.07268 156.66391,601.58583 153.87016,604.30876 C 151.2244,606.80179 136.81534,627.795 136.99854,634.10822 C 137.19378,640.83685 137.50947,640.71322 145.50538,648.43259 C 151.38459,654.1085 159.25813,658.75243 160.46724,658.75243 C 161.67634,658.75243 164.38815,661.38341 166.4935,664.59906 L 170.32138,670.44568 L 163.64174,673.91497 C 157.44348,677.13423 156.63495,677.21508 152.42292,675.03696 C 149.11239,673.32502 142.89059,672.68966 129.43686,672.68966 C 112.47628,672.68966 110.08225,672.31534 99.723932,668.04392 C 85.279197,662.0874 82.248221,662.14019 77.499295,668.43107 C 67.990155,681.02782 62.760147,693.28144 61.662682,705.53543 C 60.625954,717.11151 60.705876,717.52293 64.285685,719.03632 C 74.285664,723.2639 101.78139,729.96777 108.47221,729.80967 C 112.60371,729.71205 132.01184,726.27832 151.60139,722.17916 z M 238.46297,667.25287 C 234.28194,665.98451 228.89062,664.94676 226.48225,664.94676 C 223.00595,664.94676 221.66979,663.90941 219.99963,659.91387 C 217.12388,653.03416 213.95196,650.76226 205.96585,649.8621 L 199.16301,649.09534 L 196.49845,638.05092 C 195.03295,631.9765 193.25677,625.90794 192.5514,624.56524 C 190.48201,620.62612 204.11487,572.05335 211.20148,558.11647 C 212.72337,555.12345 216.83105,545.06856 220.32966,535.77227 C 223.83617,526.45495 229.09861,515.77935 232.05635,511.98293 C 237.92755,504.44699 239.13094,501.28264 242.9594,483.31298 C 247.2753,469.9932 253.646,458.40745 258.33414,445.09047 C 263.79454,427.49093 273.39855,423.51771 274.97109,423.58601 C 299.53696,425.24139 314.11736,430.58198 319.99435,432.80669 C 321.91911,433.80823 323.69645,434.79389 323.944,434.99703 C 324.19152,435.20019 323.01116,437.71902 321.32096,440.59446 C 316.3205,449.10143 301.29455,486.59434 299.31565,490.1668 L 293.16365,497.46067 L 287.16853,504.81348 C 277.50875,520.04541 277.19139,527.93743 285.86049,537.3423 C 292.95505,545.03899 298.91923,548.74845 304.44689,548.90225 C 306.7426,548.96612 310.82551,552.13032 315.93653,557.80658 L 323.86495,566.61185 L 318.2594,575.04279 C 312.92272,583.06932 312.05959,583.66357 300.2652,587.43144 C 293.45144,589.60819 287.00546,591.95293 285.94082,592.64198 C 284.56531,593.53223 284.00509,599.39951 284.00509,612.9155 L 284.00509,631.9362 L 274.59089,634.78657 C 265.23616,637.61896 265.14189,637.70607 259.66892,648.57393 C 255.29126,657.26678 247.37882,669.6673 246.26819,669.57575 C 246.15635,669.56652 242.644,668.52123 238.46297,667.25287 z M 364.29378,547.76278 C 363.47465,546.76472 360.11918,545.49443 356.83718,544.93995 C 349.22817,543.65441 347.74674,541.78737 340.62845,524.51207 L 334.76692,510.28676 L 338.6671,503.60623 C 340.81218,499.93194 345.3473,492.04766 348.74516,486.08562 C 352.14301,480.12359 359.27742,468.62537 364.59942,460.53404 C 381.4127,434.9719 389.31363,418.81544 389.27461,410.07633 C 389.23686,401.62509 384.60191,389.77295 380.75782,388.29783 C 347.34646,374.12379 334.52339,364.86572 307.7484,354.22052 C 301.92919,352.73697 296.5793,351.03687 295.85971,350.44251 C 295.14013,349.84815 298.05373,344.22251 302.33434,337.94109 C 307.56826,330.26081 309.51652,322.66821 312.6636,316.38344 C 315.90851,309.90328 316.13527,309.72653 319.81784,307.48076 C 322.4402,305.88156 325.0472,305.9737 327.95762,305.01318 C 332.10631,303.64399 336.76157,304.55418 344.5418,306.3881 C 349.99986,307.67466 358.54643,308.73759 363.53419,308.75018 C 371.34481,308.76989 373.45399,309.44722 378.73879,313.63286 C 384.52627,318.21662 385.41954,318.44176 394.46654,317.59695 C 407.67132,316.36386 409.06701,315.60082 413.2628,307.32084 C 416.01903,301.88168 418.53849,299.34076 423.30811,297.18996 C 434.76885,292.02188 434.7732,291.97057 418.64889,352.13335 C 417.16512,357.66952 413.09243,373.34891 409.59844,386.97642 C 406.10445,400.60394 401.85502,415.23803 400.15527,419.49663 C 393.8479,435.2993 377.18384,501.57999 370.42838,537.73438 C 368.46258,548.25509 366.6132,555.2237 366.31866,553.2202 C 366.02412,551.21669 365.11293,548.76086 364.29378,547.76278 z " id="path3239"/>
  </g>
</svg>